<svg width="223" height="151" viewBox="0 0 223 151" fill="none" xmlns="http://www.w3.org/2000/svg">
<g clip-path="url(#clip0_1061_54841)">
<path d="M8.06259 150.805L10.619 147.382H14.0604C14.847 147.382 15.8302 147.382 16.4202 147.382C16.0269 146.893 15.5352 146.11 15.0436 145.426L12.5855 141.905L6.19442 150.805H1.2782L9.93075 138.58C10.5207 137.797 11.3073 137.113 12.6838 137.113C13.9621 137.113 14.7487 137.797 15.3386 138.58L23.7945 150.805H8.06259Z" fill="#1D7478"/>
<path d="M34.3153 150.805H25.2694V142.394H29.4974V147.284H34.3153C36.6751 147.284 38.3466 146.013 38.3466 144.057C38.3466 142.198 36.5767 140.731 34.3153 140.731H25.2694L27.9242 137.211H34.3153C39.0348 137.211 42.4762 139.949 42.4762 143.861C42.4762 147.773 39.0348 150.805 34.3153 150.805Z" fill="#1D7478"/>
<path d="M55.8483 147.284H48.769V150.707H44.6393V143.861H56.34C57.6182 143.861 58.4048 143.274 58.4048 142.296C58.4048 141.318 57.6182 140.731 56.34 140.731H44.541L47.2941 137.211H55.75C59.978 137.211 62.4361 139.264 62.4361 142.296C62.5344 145.328 60.0763 147.284 55.8483 147.284Z" fill="#1D7478"/>
<path d="M83.8707 150.805H78.2662L75.2182 147.284H68.8271V150.805H64.5991V143.959H76.3981C77.6763 143.959 78.6595 143.372 78.6595 142.492C78.6595 141.416 77.7746 140.927 76.3981 140.927H64.5991L67.3522 137.406H76.1031C79.1512 137.406 83.0841 138.384 83.0841 142.198C83.0841 144.252 81.8059 146.012 79.5444 146.501C80.0361 146.893 80.5277 147.284 81.4126 148.262L83.8707 150.805Z" fill="#1D7478"/>
<path d="M104.224 144.056C104.224 148.849 100.881 151 94.2932 151C87.7055 151 84.3624 148.849 84.3624 144.056C84.3624 139.264 87.7055 137.113 94.2932 137.113C100.881 137.113 104.224 139.167 104.224 144.056ZM99.996 144.056C99.996 141.123 98.5212 140.634 94.2932 140.634C90.0652 140.634 88.5904 141.22 88.5904 144.056C88.5904 146.99 90.0652 147.479 94.2932 147.479C98.5212 147.479 99.996 146.893 99.996 144.056Z" fill="#1D7478"/>
<path d="M108.452 137.308L114.548 146.208L120.939 137.308H125.855L117.203 149.533C116.613 150.315 115.826 151 114.45 151C113.171 151 112.385 150.315 111.795 149.533L103.339 137.308H108.452Z" fill="#1D7478"/>
<path d="M143.062 147.284L140.407 150.707H127.33V137.211H143.062L140.309 140.731H131.558V142.296H142.276L139.916 145.328H131.558V147.186H143.062V147.284Z" fill="#1D7478"/>
<path d="M160.269 147.284L157.614 150.707H144.537V137.211H160.269L157.516 140.731H148.765V142.296H159.482L157.123 145.328H148.765V147.186H160.269V147.284Z" fill="#1D7478"/>
<path d="M170.691 150.805H161.646V142.394H165.873V147.284H170.691C173.051 147.284 174.723 146.013 174.723 144.057C174.723 142.198 172.953 140.731 170.691 140.731H161.646L164.3 137.211H170.691C175.411 137.211 178.852 139.949 178.852 143.861C178.852 147.773 175.411 150.805 170.691 150.805Z" fill="#1D7478"/>
<path d="M200.385 144.056C200.385 148.849 197.042 151 190.455 151C183.867 151 180.524 148.849 180.524 144.056C180.524 139.264 183.867 137.113 190.455 137.113C197.042 137.113 200.385 139.167 200.385 144.056ZM196.256 144.056C196.256 141.123 194.781 140.634 190.553 140.634C186.325 140.634 184.85 141.22 184.85 144.056C184.85 146.99 186.325 147.479 190.553 147.479C194.683 147.479 196.256 146.893 196.256 144.056Z" fill="#1D7478"/>
<path d="M221.722 150.805H216.117L213.069 147.284H206.678V150.805H202.45V143.959H214.249C215.527 143.959 216.511 143.372 216.511 142.492C216.511 141.416 215.626 140.927 214.249 140.927H202.45L205.203 137.406H213.954C217.002 137.406 220.935 138.384 220.935 142.198C220.935 144.252 219.657 146.012 217.396 146.501C217.887 146.893 218.379 147.284 219.264 148.262L221.722 150.805Z" fill="#1D7478"/>
<path d="M179.344 76.7714L156.336 38.1412L133.525 0H89.4754L66.6641 38.1412L43.6561 76.7714L66.6641 115.891H156.336L156.139 115.793H156.336L156.434 115.891L179.442 76.8692V76.7714H179.344ZM111.5 38.1412L133.525 76.6736H89.2787L111.5 38.1412Z" fill="#058C97"/>
<path d="M111.5 38.1411L89.2787 76.7713H43.6561L111.5 38.1411Z" fill="#1D7478"/>
<path d="M179.344 76.7713H179.246L156.238 38.1411H156.336L179.344 76.7713Z" fill="#1D7478"/>
<path d="M156.238 38.1412L133.525 0.0977979L133.623 38.1412L133.525 76.7714L111.5 38.1412L133.525 0L156.336 38.1412H156.238Z" fill="#1D7478"/>
<path d="M156.238 115.793H156.139L89.2787 76.7715H133.525L156.238 115.793Z" fill="#1D7478"/>
<path d="M156.238 115.793L133.525 76.7715H133.721L156.238 115.793Z" fill="#1D7478"/>
<path d="M133.525 0L111.5 38.1412L43.6561 76.7714L66.6641 38.1412L89.4753 0H133.525Z" fill="#058C97"/>
<path d="M179.246 76.7715L156.336 115.793H156.238L133.525 76.7715L133.623 38.1413L133.525 0.0979004L156.238 38.1413L179.246 76.7715Z" fill="#058C97"/>
<path d="M179.344 76.8693L156.336 115.891L156.238 115.793H156.336L179.246 76.7715L179.344 76.8693Z" fill="#058C97"/>
<path d="M156.139 115.793H66.6641L43.6561 76.7715H89.2787L156.139 115.793Z" fill="#058C97"/>
<path d="M156.336 115.891H66.6641L43.6561 76.7715L66.6641 115.793H156.139L156.336 115.891Z" fill="#058C97"/>
</g>
<defs>
<clipPath id="clip0_1061_54841">
<rect width="223" height="151" fill="white"/>
</clipPath>
</defs>
</svg>
